<svg width="40" height="48" viewBox="0 0 40 48" fill="none" xmlns="http://www.w3.org/2000/svg">
<g filter="url(#filter0_d_110_80496)">
<path d="M20 41C24.4333 36.9667 28.3833 33.2833 30.5 30C32.6167 26.7167 34 22.9 34 20.4C34 16.4667 32.0167 12.5 29.5 10C26.9833 7.5 23.6333 6 20 6C16.3667 6 12.7667 7.5 10.25 10C7.73333 12.5 6 16.4667 6 20.4C6 22.9 7.33333 26.7167 9.5 30C11.6667 33.2833 15.6667 36.9667 20 41ZM20 44C14.6333 39.4333 10.625 35.1917 7.975 31.275C5.325 27.3583 4 23.7333 4 20.4C4 15.4 5.60833 11.4167 8.825 8.45C12.0417 5.48333 15.7667 4 20 4C24.2333 4 27.9583 5.48333 31.175 8.45C34.3917 11.4167 36 15.4 36 20.4C36 23.7333 34.675 27.3583 32.025 31.275C29.375 35.1917 25.3667 39.4333 20 44Z" fill="#D6B154"/>
<path d="M20 41C24.4333 36.9667 28.3833 33.2833 30.5 30C32.6167 26.7167 34 22.9 34 20.4C34 16.4667 32.0167 12.5 29.5 10C26.9833 7.5 23.6333 6 20 6C16.3667 6 12.7667 7.5 10.25 10C7.73333 12.5 6 16.4667 6 20.4C6 22.9 7.33333 26.7167 9.5 30C11.6667 33.2833 15.6667 36.9667 20 41Z" fill="#D6B154"/>
<path d="M14.0823 29.7L15.2562 27.1125C15.0326 26.9528 14.817 26.789 14.6094 26.6213C14.4017 26.4536 14.2021 26.266 14.0104 26.0583C13.8826 26.0903 13.7828 26.1062 13.7109 26.1062H13.5073C12.9642 26.1062 12.505 25.9106 12.1297 25.5193C11.7543 25.1279 11.5667 24.6528 11.5667 24.0937C11.5667 23.8542 11.6146 23.6226 11.7104 23.3989C11.8062 23.1753 11.942 22.9677 12.1177 22.776C11.9899 22.4566 11.9021 22.1132 11.8542 21.7458C11.8062 21.3785 11.7823 20.9632 11.7823 20.5C11.7823 20.0368 11.8102 19.6215 11.8661 19.2542C11.922 18.8868 12.0059 18.5434 12.1177 18.2239C11.942 18.0483 11.8102 17.8406 11.7224 17.601C11.6345 17.3614 11.5906 17.1139 11.5906 16.8583C11.5906 16.3153 11.7783 15.8561 12.1536 15.4807C12.529 15.1054 12.9802 14.9177 13.5073 14.9177H13.9146C13.9465 14.9177 13.9864 14.9257 14.0344 14.9417C14.5455 14.3826 15.1324 13.9114 15.7953 13.5281C16.4581 13.1448 17.1729 12.8653 17.9396 12.6896C18.0673 12.2743 18.3069 11.9389 18.6583 11.6833C19.0097 11.4278 19.401 11.3 19.8323 11.3C20.2635 11.3 20.6548 11.4278 21.0062 11.6833C21.3576 11.9389 21.5972 12.2743 21.725 12.6896C22.4757 12.8653 23.1825 13.1448 23.8453 13.5281C24.5081 13.9114 25.1031 14.3826 25.6302 14.9417C25.758 14.9257 25.8578 14.9137 25.9297 14.9057C26.0015 14.8977 26.0774 14.8937 26.1573 14.8937C26.6844 14.8937 27.1356 15.0854 27.5109 15.4687C27.8863 15.8521 28.0739 16.3233 28.0739 16.8823C28.0739 17.1378 28.03 17.3814 27.9422 17.613C27.8543 17.8446 27.7226 18.0483 27.5469 18.2239C27.6587 18.6073 27.7425 18.9906 27.7984 19.3739C27.8543 19.7573 27.8823 20.1326 27.8823 20.5C27.8823 20.9632 27.8583 21.3785 27.8104 21.7458C27.7625 22.1132 27.6826 22.4566 27.5708 22.776C27.7465 22.9517 27.8743 23.1554 27.9542 23.387C28.034 23.6186 28.0739 23.8621 28.0739 24.1177C28.0739 24.6767 27.8863 25.1479 27.5109 25.5312C27.1356 25.9146 26.6844 26.1062 26.1573 26.1062C26.0774 26.1062 25.9936 26.1022 25.9057 26.0943C25.8179 26.0863 25.734 26.0743 25.6542 26.0583C25.2868 26.3937 25.0272 26.6293 24.8755 26.7651C24.7238 26.9009 24.568 27.0167 24.4083 27.1125L25.6062 29.7H23.6896L22.875 27.951C22.6673 28.0309 22.4677 28.0988 22.276 28.1547C22.0844 28.2106 21.9007 28.2625 21.725 28.3104C21.5812 28.7257 21.3417 29.0611 21.0062 29.3167C20.6708 29.5722 20.2795 29.7 19.8323 29.7C19.401 29.7 19.0177 29.5762 18.6823 29.3286C18.3469 29.0811 18.0993 28.7417 17.9396 28.3104C17.7319 28.2625 17.5323 28.2106 17.3406 28.1547C17.1489 28.0988 16.9653 28.0309 16.7896 27.951L15.975 29.7H14.0823ZM16.0229 25.5312L17.2687 22.8C16.9812 22.4646 16.7616 22.1012 16.6099 21.7099C16.4581 21.3186 16.3823 20.9153 16.3823 20.5C16.3823 19.5417 16.7177 18.7271 17.3885 18.0562C18.0594 17.3854 18.8739 17.05 19.8323 17.05C20.7906 17.05 21.6052 17.3854 22.276 18.0562C22.9469 18.7271 23.2823 19.5417 23.2823 20.5C23.2823 20.9153 23.2064 21.3226 23.0547 21.7219C22.9029 22.1212 22.6833 22.4805 22.3958 22.8L23.6656 25.5312C23.7774 25.4514 23.8812 25.3675 23.9771 25.2797C24.0729 25.1918 24.1687 25.1 24.2646 25.0042C24.1847 24.8604 24.1288 24.7167 24.0969 24.5729C24.0649 24.4292 24.0489 24.2774 24.0489 24.1177C24.0489 23.5746 24.2286 23.1075 24.588 22.7161C24.9474 22.3248 25.3986 22.1132 25.9417 22.0812C26.0215 21.8257 26.0774 21.5661 26.1094 21.3026C26.1413 21.039 26.1573 20.7715 26.1573 20.5C26.1573 20.2285 26.1413 19.9649 26.1094 19.7094C26.0774 19.4538 26.0215 19.1903 25.9417 18.9187C25.3986 18.8868 24.9474 18.6752 24.588 18.2838C24.2286 17.8925 24.0489 17.4253 24.0489 16.8823C24.0489 16.7226 24.0689 16.5708 24.1088 16.4271C24.1488 16.2833 24.2007 16.1396 24.2646 15.9958C23.8812 15.6285 23.454 15.309 22.9828 15.0375C22.5116 14.766 22.0205 14.5583 21.5094 14.4146C21.3337 14.7021 21.0941 14.9257 20.7906 15.0854C20.4871 15.2451 20.1677 15.325 19.8323 15.325C19.4969 15.325 19.1774 15.2451 18.8739 15.0854C18.5705 14.9257 18.3309 14.7021 18.1552 14.4146C17.6441 14.5583 17.1529 14.766 16.6818 15.0375C16.2106 15.309 15.7833 15.6285 15.4 15.9958C15.4639 16.1236 15.5158 16.2594 15.5557 16.4031C15.5956 16.5469 15.6156 16.6986 15.6156 16.8583C15.6156 17.4014 15.4359 17.8726 15.0765 18.2719C14.7172 18.6712 14.266 18.8868 13.7229 18.9187C13.6271 19.1903 13.5672 19.4618 13.5432 19.7333C13.5193 20.0048 13.5073 20.2764 13.5073 20.5479C13.5073 20.8194 13.5232 21.083 13.5552 21.3385C13.5871 21.5941 13.643 21.8417 13.7229 22.0812C14.25 22.1451 14.6972 22.3647 15.0646 22.7401C15.4319 23.1154 15.6156 23.5667 15.6156 24.0937C15.6156 24.2535 15.5996 24.4092 15.5677 24.5609C15.5357 24.7127 15.4798 24.8604 15.4 25.0042C15.4958 25.1 15.5956 25.1918 15.6995 25.2797C15.8033 25.3675 15.9111 25.4514 16.0229 25.5312ZM17.5323 26.3937C17.6441 26.4257 17.7479 26.4576 17.8437 26.4896C17.9396 26.5215 18.0434 26.5535 18.1552 26.5854C18.3469 26.3139 18.5904 26.0943 18.8859 25.9265C19.1814 25.7588 19.4969 25.675 19.8323 25.675C20.1677 25.675 20.4792 25.7588 20.7667 25.9265C21.0542 26.0943 21.3017 26.3139 21.5094 26.5854C21.6212 26.5535 21.725 26.5175 21.8208 26.4776C21.9167 26.4377 22.0205 26.4017 22.1323 26.3698L20.9344 23.7583C20.7587 23.8222 20.579 23.8701 20.3953 23.9021C20.2116 23.934 20.0319 23.95 19.8562 23.95C19.6646 23.95 19.4729 23.934 19.2812 23.9021C19.0896 23.8701 18.9059 23.8222 18.7302 23.7583L17.5323 26.3937ZM19.8323 22.225C20.3114 22.225 20.7187 22.0573 21.0542 21.7219C21.3896 21.3864 21.5573 20.9792 21.5573 20.5C21.5573 20.0208 21.3896 19.6135 21.0542 19.2781C20.7187 18.9427 20.3114 18.775 19.8323 18.775C19.3531 18.775 18.9458 18.9427 18.6104 19.2781C18.275 19.6135 18.1073 20.0208 18.1073 20.5C18.1073 20.9792 18.275 21.3864 18.6104 21.7219C18.9458 22.0573 19.3531 22.225 19.8323 22.225Z" fill="white"/>
</g>
<defs>
<filter id="filter0_d_110_80496" x="0" y="0" width="40" height="48" filterUnits="userSpaceOnUse" color-interpolation-filters="sRGB">
<feFlood flood-opacity="0" result="BackgroundImageFix"/>
<feColorMatrix in="SourceAlpha" type="matrix" values="0 0 0 0 0 0 0 0 0 0 0 0 0 0 0 0 0 0 127 0" result="hardAlpha"/>
<feOffset/>
<feGaussianBlur stdDeviation="2"/>
<feComposite in2="hardAlpha" operator="out"/>
<feColorMatrix type="matrix" values="0 0 0 0 0 0 0 0 0 0 0 0 0 0 0 0 0 0 0.25 0"/>
<feBlend mode="normal" in2="BackgroundImageFix" result="effect1_dropShadow_110_80496"/>
<feBlend mode="normal" in="SourceGraphic" in2="effect1_dropShadow_110_80496" result="shape"/>
</filter>
</defs>
</svg>
