<svg width="40" height="48" viewBox="0 0 40 48" fill="none" xmlns="http://www.w3.org/2000/svg">
<g filter="url(#filter0_d_110_80499)">
<path d="M20 41C24.4333 36.9667 28.3833 33.2833 30.5 30C32.6167 26.7167 34 22.9 34 20.4C34 16.4667 32.0167 12.5 29.5 10C26.9833 7.5 23.6333 6 20 6C16.3667 6 12.7667 7.5 10.25 10C7.73333 12.5 6 16.4667 6 20.4C6 22.9 7.33333 26.7167 9.5 30C11.6667 33.2833 15.6667 36.9667 20 41ZM20 44C14.6333 39.4333 10.625 35.1917 7.975 31.275C5.325 27.3583 4 23.7333 4 20.4C4 15.4 5.60833 11.4167 8.825 8.45C12.0417 5.48333 15.7667 4 20 4C24.2333 4 27.9583 5.48333 31.175 8.45C34.3917 11.4167 36 15.4 36 20.4C36 23.7333 34.675 27.3583 32.025 31.275C29.375 35.1917 25.3667 39.4333 20 44Z" fill="#548FD6"/>
<path d="M20 41C24.4333 36.9667 28.3833 33.2833 30.5 30C32.6167 26.7167 34 22.9 34 20.4C34 16.4667 32.0167 12.5 29.5 10C26.9833 7.5 23.6333 6 20 6C16.3667 6 12.7667 7.5 10.25 10C7.73333 12.5 6 16.4667 6 20.4C6 22.9 7.33333 26.7167 9.5 30C11.6667 33.2833 15.6667 36.9667 20 41Z" fill="#548FD6"/>
<path d="M26.0451 17.5625C26.2775 17.5625 26.4739 17.4875 26.6344 17.3374C26.7948 17.1873 26.875 17.0014 26.875 16.7796C26.875 16.5578 26.7964 16.3703 26.6392 16.2172C26.482 16.064 26.2872 15.9875 26.0548 15.9875C25.8224 15.9875 25.626 16.0625 25.4656 16.2125C25.3052 16.3626 25.225 16.5485 25.225 16.7704C25.225 16.9922 25.3036 17.1797 25.4608 17.3328C25.618 17.4859 25.8128 17.5625 26.0451 17.5625ZM22.7451 17.5625C22.9775 17.5625 23.1739 17.4875 23.3344 17.3374C23.4948 17.1873 23.575 17.0014 23.575 16.7796C23.575 16.5578 23.4964 16.3703 23.3392 16.2172C23.182 16.064 22.9872 15.9875 22.7548 15.9875C22.5224 15.9875 22.326 16.0625 22.1656 16.2125C22.0052 16.3626 21.925 16.5485 21.925 16.7704C21.925 16.9922 22.0036 17.1797 22.1608 17.3328C22.318 17.4859 22.5128 17.5625 22.7451 17.5625ZM22.2 20.975H26.6C26.6 20.4791 26.3763 20.0927 25.929 19.8156C25.4816 19.5385 24.972 19.4 24.4 19.4C23.828 19.4 23.3183 19.5385 22.871 19.8156C22.4236 20.0927 22.2 20.4791 22.2 20.975ZM15.6 29.9C14.0722 29.9 12.7736 29.3896 11.7041 28.3687C10.6347 27.3479 10.1 26.1083 10.1 24.65V18.35H21.1V24.65C21.1 26.1083 20.5653 27.3479 19.4958 28.3687C18.4264 29.3896 17.1278 29.9 15.6 29.9ZM15.6 28.325C16.6694 28.325 17.5784 27.9677 18.3271 27.2531C19.0757 26.5385 19.45 25.6708 19.45 24.65V19.925H11.75V24.65C11.75 25.6708 12.1243 26.5385 12.8729 27.2531C13.6215 27.9677 14.5305 28.325 15.6 28.325ZM24.4 24.65C24.0234 24.65 23.6504 24.6135 23.2811 24.5406C22.9117 24.4677 22.5514 24.351 22.2 24.1906V22.3969C22.5055 22.6448 22.8481 22.8198 23.2277 22.9219C23.6073 23.0239 23.998 23.075 24.4 23.075C25.4694 23.075 26.3784 22.7177 27.1271 22.0031C27.8757 21.2885 28.25 20.4208 28.25 19.4V14.675H20.55V17.3H18.9V13.1H29.9V19.4C29.9 20.8583 29.3653 22.0979 28.2958 23.1187C27.2264 24.1396 25.9278 24.65 24.4 24.65ZM13.9451 22.8125C14.1775 22.8125 14.3739 22.7375 14.5344 22.5874C14.6948 22.4373 14.775 22.2514 14.775 22.0296C14.775 21.8078 14.6964 21.6203 14.5392 21.4672C14.382 21.314 14.1872 21.2375 13.9548 21.2375C13.7224 21.2375 13.526 21.3125 13.3656 21.4625C13.2052 21.6126 13.125 21.7985 13.125 22.0204C13.125 22.2422 13.2036 22.4297 13.3608 22.5828C13.518 22.7359 13.7128 22.8125 13.9451 22.8125ZM17.2451 22.8125C17.4775 22.8125 17.6739 22.7375 17.8344 22.5874C17.9948 22.4373 18.075 22.2514 18.075 22.0296C18.075 21.8078 17.9964 21.6203 17.8392 21.4672C17.682 21.314 17.4872 21.2375 17.2548 21.2375C17.0224 21.2375 16.826 21.3125 16.6656 21.4625C16.5052 21.6126 16.425 21.7985 16.425 22.0204C16.425 22.2422 16.5036 22.4297 16.6608 22.5828C16.818 22.7359 17.0128 22.8125 17.2451 22.8125ZM15.6 26.225C16.172 26.225 16.6816 26.0864 17.129 25.8094C17.5763 25.5323 17.8 25.1458 17.8 24.65H13.4C13.4 25.1458 13.6236 25.5323 14.071 25.8094C14.5183 26.0864 15.028 26.225 15.6 26.225Z" fill="white"/>
</g>
<defs>
<filter id="filter0_d_110_80499" x="0" y="0" width="40" height="48" filterUnits="userSpaceOnUse" color-interpolation-filters="sRGB">
<feFlood flood-opacity="0" result="BackgroundImageFix"/>
<feColorMatrix in="SourceAlpha" type="matrix" values="0 0 0 0 0 0 0 0 0 0 0 0 0 0 0 0 0 0 127 0" result="hardAlpha"/>
<feOffset/>
<feGaussianBlur stdDeviation="2"/>
<feComposite in2="hardAlpha" operator="out"/>
<feColorMatrix type="matrix" values="0 0 0 0 0 0 0 0 0 0 0 0 0 0 0 0 0 0 0.25 0"/>
<feBlend mode="normal" in2="BackgroundImageFix" result="effect1_dropShadow_110_80499"/>
<feBlend mode="normal" in="SourceGraphic" in2="effect1_dropShadow_110_80499" result="shape"/>
</filter>
</defs>
</svg>
