<svg width="40" height="48" viewBox="0 0 40 48" fill="none" xmlns="http://www.w3.org/2000/svg">
<g filter="url(#filter0_d_110_80495)">
<path d="M20 41C24.4333 36.9667 28.3833 33.2833 30.5 30C32.6167 26.7167 34 22.9 34 20.4C34 16.4667 32.0167 12.5 29.5 10C26.9833 7.5 23.6333 6 20 6C16.3667 6 12.7667 7.5 10.25 10C7.73333 12.5 6 16.4667 6 20.4C6 22.9 7.33333 26.7167 9.5 30C11.6667 33.2833 15.6667 36.9667 20 41ZM20 44C14.6333 39.4333 10.625 35.1917 7.975 31.275C5.325 27.3583 4 23.7333 4 20.4C4 15.4 5.60833 11.4167 8.825 8.45C12.0417 5.48333 15.7667 4 20 4C24.2333 4 27.9583 5.48333 31.175 8.45C34.3917 11.4167 36 15.4 36 20.4C36 23.7333 34.675 27.3583 32.025 31.275C29.375 35.1917 25.3667 39.4333 20 44Z" fill="#D65454"/>
<path d="M20 41C24.4333 36.9667 28.3833 33.2833 30.5 30C32.6167 26.7167 34 22.9 34 20.4C34 16.4667 32.0167 12.5 29.5 10C26.9833 7.5 23.6333 6 20 6C16.3667 6 12.7667 7.5 10.25 10C7.73333 12.5 6 16.4667 6 20.4C6 22.9 7.33333 26.7167 9.5 30C11.6667 33.2833 15.6667 36.9667 20 41Z" fill="#D65454"/>
<path d="M12.35 29C11.975 29 11.6562 28.8704 11.3937 28.6111C11.1313 28.3519 11 28.037 11 27.6667V13L12.5075 14.4889L13.9925 13L15.5 14.4889L17.0075 13L18.4925 14.4889L20 13L21.5075 14.4889L22.9925 13L24.5 14.4889L26.0075 13L27.4925 14.4889L29 13V27.6667C29 28.037 28.8687 28.3519 28.6062 28.6111C28.3438 28.8704 28.025 29 27.65 29H12.35ZM12.35 27.6667H19.325V21.4444H12.35V27.6667ZM20.675 27.6667H27.65V25.2222H20.675V27.6667ZM20.675 23.8889H27.65V21.4444H20.675V23.8889ZM12.35 20.1111H27.65V17.4444H12.35V20.1111Z" fill="white"/>
</g>
<defs>
<filter id="filter0_d_110_80495" x="0" y="0" width="40" height="48" filterUnits="userSpaceOnUse" color-interpolation-filters="sRGB">
<feFlood flood-opacity="0" result="BackgroundImageFix"/>
<feColorMatrix in="SourceAlpha" type="matrix" values="0 0 0 0 0 0 0 0 0 0 0 0 0 0 0 0 0 0 127 0" result="hardAlpha"/>
<feOffset/>
<feGaussianBlur stdDeviation="2"/>
<feComposite in2="hardAlpha" operator="out"/>
<feColorMatrix type="matrix" values="0 0 0 0 0 0 0 0 0 0 0 0 0 0 0 0 0 0 0.25 0"/>
<feBlend mode="normal" in2="BackgroundImageFix" result="effect1_dropShadow_110_80495"/>
<feBlend mode="normal" in="SourceGraphic" in2="effect1_dropShadow_110_80495" result="shape"/>
</filter>
</defs>
</svg>
