<svg width="77" height="32" viewBox="0 0 77 32" fill="none" xmlns="http://www.w3.org/2000/svg">
<rect width="77" height="32" rx="8" fill="#D6B154"/>
<path d="M10.582 24.7L11.756 22.1125C11.5324 21.9528 11.3168 21.7891 11.1091 21.6214C10.9015 21.4537 10.7018 21.266 10.5102 21.0584C10.3824 21.0903 10.2826 21.1063 10.2107 21.1063H10.007C9.46398 21.1063 9.00477 20.9106 8.62943 20.5193C8.25408 20.128 8.06641 19.6528 8.06641 19.0938C8.06641 18.8542 8.11432 18.6226 8.21016 18.399C8.30599 18.1754 8.44175 17.9678 8.61745 17.7761C8.48967 17.4566 8.40182 17.1132 8.35391 16.7459C8.30599 16.3785 8.28203 15.9632 8.28203 15.5C8.28203 15.0369 8.30998 14.6216 8.36589 14.2542C8.42179 13.8869 8.50564 13.5435 8.61745 13.224C8.44175 13.0483 8.30998 12.8407 8.22214 12.6011C8.13429 12.3615 8.09036 12.1139 8.09036 11.8584C8.09036 11.3153 8.27804 10.8561 8.65339 10.4808C9.02873 10.1054 9.47995 9.91776 10.007 9.91776H10.4143C10.4463 9.91776 10.4862 9.92574 10.5341 9.94172C11.0452 9.38269 11.6322 8.91151 12.2951 8.52817C12.9579 8.14484 13.6727 7.86533 14.4393 7.68963C14.5671 7.27435 14.8067 6.93894 15.1581 6.68338C15.5095 6.42783 15.9008 6.30005 16.332 6.30005C16.7633 6.30005 17.1546 6.42783 17.506 6.68338C17.8574 6.93894 18.097 7.27435 18.2247 7.68963C18.9754 7.86533 19.6822 8.14484 20.3451 8.52817C21.0079 8.91151 21.6029 9.38269 22.1299 9.94172C22.2577 9.92574 22.3576 9.91376 22.4294 9.90578C22.5013 9.89779 22.5772 9.8938 22.657 9.8938C23.1841 9.8938 23.6353 10.0855 24.0107 10.4688C24.386 10.8521 24.5737 11.3233 24.5737 11.8823C24.5737 12.1379 24.5298 12.3815 24.4419 12.6131C24.3541 12.8447 24.2223 13.0483 24.0466 13.224C24.1584 13.6073 24.2423 13.9907 24.2982 14.374C24.3541 14.7573 24.382 15.1327 24.382 15.5C24.382 15.9632 24.3581 16.3785 24.3102 16.7459C24.2622 17.1132 24.1824 17.4566 24.0706 17.7761C24.2463 17.9518 24.374 18.1554 24.4539 18.387C24.5338 18.6186 24.5737 18.8622 24.5737 19.1178C24.5737 19.6768 24.386 20.148 24.0107 20.5313C23.6353 20.9146 23.1841 21.1063 22.657 21.1063C22.5772 21.1063 22.4933 21.1023 22.4055 21.0943C22.3176 21.0863 22.2338 21.0744 22.1539 21.0584C21.7865 21.3938 21.527 21.6294 21.3753 21.7652C21.2235 21.9009 21.0678 22.0167 20.9081 22.1125L22.106 24.7H20.1893L19.3747 22.9511C19.1671 23.031 18.9674 23.0988 18.7758 23.1547C18.5841 23.2106 18.4004 23.2625 18.2247 23.3105C18.081 23.7257 17.8414 24.0612 17.506 24.3167C17.1706 24.5723 16.7793 24.7 16.332 24.7C15.9008 24.7 15.5174 24.5763 15.182 24.3287C14.8466 24.0811 14.599 23.7417 14.4393 23.3105C14.2317 23.2625 14.032 23.2106 13.8404 23.1547C13.6487 23.0988 13.465 23.031 13.2893 22.9511L12.4747 24.7H10.582ZM12.5227 20.5313L13.7685 17.8C13.481 17.4646 13.2614 17.1013 13.1096 16.7099C12.9579 16.3186 12.882 15.9153 12.882 15.5C12.882 14.5417 13.2174 13.7271 13.8883 13.0563C14.5591 12.3855 15.3737 12.05 16.332 12.05C17.2904 12.05 18.1049 12.3855 18.7758 13.0563C19.4466 13.7271 19.782 14.5417 19.782 15.5C19.782 15.9153 19.7062 16.3226 19.5544 16.7219C19.4027 17.1212 19.1831 17.4806 18.8956 17.8L20.1654 20.5313C20.2772 20.4514 20.381 20.3676 20.4768 20.2797C20.5727 20.1919 20.6685 20.1 20.7643 20.0042C20.6845 19.8605 20.6286 19.7167 20.5966 19.573C20.5647 19.4292 20.5487 19.2775 20.5487 19.1178C20.5487 18.5747 20.7284 18.1075 21.0878 17.7162C21.4471 17.3249 21.8984 17.1132 22.4414 17.0813C22.5213 16.8257 22.5772 16.5662 22.6091 16.3027C22.6411 16.0391 22.657 15.7716 22.657 15.5C22.657 15.2285 22.6411 14.965 22.6091 14.7094C22.5772 14.4539 22.5213 14.1903 22.4414 13.9188C21.8984 13.8869 21.4471 13.6752 21.0878 13.2839C20.7284 12.8926 20.5487 12.4254 20.5487 11.8823C20.5487 11.7226 20.5687 11.5709 20.6086 11.4271C20.6485 11.2834 20.7004 11.1396 20.7643 10.9959C20.381 10.6285 19.9537 10.3091 19.4826 10.0375C19.0114 9.76602 18.5202 9.55838 18.0091 9.41463C17.8334 9.70213 17.5938 9.92574 17.2904 10.0855C16.9869 10.2452 16.6674 10.325 16.332 10.325C15.9966 10.325 15.6772 10.2452 15.3737 10.0855C15.0702 9.92574 14.8306 9.70213 14.6549 9.41463C14.1438 9.55838 13.6527 9.76602 13.1815 10.0375C12.7103 10.3091 12.2831 10.6285 11.8997 10.9959C11.9636 11.1237 12.0155 11.2594 12.0555 11.4032C12.0954 11.5469 12.1154 11.6987 12.1154 11.8584C12.1154 12.4014 11.9357 12.8726 11.5763 13.2719C11.2169 13.6712 10.7657 13.8869 10.2227 13.9188C10.1268 14.1903 10.0669 14.4619 10.043 14.7334C10.019 15.0049 10.007 15.2764 10.007 15.548C10.007 15.8195 10.023 16.083 10.0549 16.3386C10.0869 16.5941 10.1428 16.8417 10.2227 17.0813C10.7497 17.1452 11.197 17.3648 11.5643 17.7402C11.9317 18.1155 12.1154 18.5667 12.1154 19.0938C12.1154 19.2535 12.0994 19.4092 12.0674 19.561C12.0355 19.7127 11.9796 19.8605 11.8997 20.0042C11.9956 20.1 12.0954 20.1919 12.1992 20.2797C12.303 20.3676 12.4109 20.4514 12.5227 20.5313ZM14.032 21.3938C14.1438 21.4257 14.2477 21.4577 14.3435 21.4896C14.4393 21.5216 14.5431 21.5535 14.6549 21.5855C14.8466 21.3139 15.0902 21.0943 15.3857 20.9266C15.6812 20.7589 15.9966 20.675 16.332 20.675C16.6674 20.675 16.9789 20.7589 17.2664 20.9266C17.5539 21.0943 17.8015 21.3139 18.0091 21.5855C18.1209 21.5535 18.2247 21.5176 18.3206 21.4777C18.4164 21.4377 18.5202 21.4018 18.632 21.3698L17.4341 18.7584C17.2584 18.8223 17.0787 18.8702 16.8951 18.9021C16.7114 18.9341 16.5317 18.95 16.356 18.95C16.1643 18.95 15.9727 18.9341 15.781 18.9021C15.5893 18.8702 15.4056 18.8223 15.2299 18.7584L14.032 21.3938ZM16.332 17.225C16.8112 17.225 17.2185 17.0573 17.5539 16.7219C17.8893 16.3865 18.057 15.9792 18.057 15.5C18.057 15.0209 17.8893 14.6136 17.5539 14.2782C17.2185 13.9428 16.8112 13.775 16.332 13.775C15.8529 13.775 15.4456 13.9428 15.1102 14.2782C14.7747 14.6136 14.607 15.0209 14.607 15.5C14.607 15.9792 14.7747 16.3865 15.1102 16.7219C15.4456 17.0573 15.8529 17.225 16.332 17.225Z" fill="#FCFDF7"/>
<path d="M40.873 19.6396V21H33.5381V19.6396H40.873ZM33.9619 19.6396V23.4473H32.3213L32.2598 19.6396H33.9619ZM42.1992 19.6396L42.0967 23.4404H40.4834V19.6396H42.1992ZM39.6699 11.0469V12.4141H35.0762V11.0469H39.6699ZM40.9824 11.0469V21H39.2734V11.0469H40.9824ZM34.7344 11.0469H36.4502L36.2109 15.0801C36.1745 15.7181 36.1084 16.2923 36.0127 16.8027C35.917 17.3132 35.8008 17.7712 35.6641 18.1768C35.5319 18.5778 35.3815 18.9333 35.2129 19.2432C35.0443 19.5485 34.8643 19.8128 34.6729 20.0361C34.4814 20.2594 34.2855 20.4508 34.085 20.6104C33.889 20.7653 33.6953 20.8952 33.5039 21H32.5879V19.6396H33.0322C33.1553 19.5257 33.292 19.3617 33.4424 19.1475C33.5928 18.9287 33.7386 18.6439 33.8799 18.293C34.0257 17.9375 34.1533 17.4977 34.2627 16.9736C34.3721 16.4495 34.4473 15.8184 34.4883 15.0801L34.7344 11.0469ZM43.0195 17.3838V17.2266C43.0195 16.6934 43.097 16.1989 43.252 15.7432C43.4069 15.2829 43.6302 14.8841 43.9219 14.5469C44.2181 14.2051 44.5781 13.9408 45.002 13.7539C45.4303 13.5625 45.9134 13.4668 46.4512 13.4668C46.9935 13.4668 47.4766 13.5625 47.9004 13.7539C48.3288 13.9408 48.6911 14.2051 48.9873 14.5469C49.2835 14.8841 49.5091 15.2829 49.6641 15.7432C49.819 16.1989 49.8965 16.6934 49.8965 17.2266V17.3838C49.8965 17.917 49.819 18.4115 49.6641 18.8672C49.5091 19.3229 49.2835 19.7217 48.9873 20.0635C48.6911 20.4007 48.3311 20.665 47.9072 20.8564C47.4834 21.0433 47.0026 21.1367 46.4648 21.1367C45.9225 21.1367 45.4372 21.0433 45.0088 20.8564C44.585 20.665 44.2249 20.4007 43.9287 20.0635C43.6325 19.7217 43.4069 19.3229 43.252 18.8672C43.097 18.4115 43.0195 17.917 43.0195 17.3838ZM44.667 17.2266V17.3838C44.667 17.7165 44.7012 18.0309 44.7695 18.3271C44.8379 18.6234 44.945 18.8831 45.0908 19.1064C45.2367 19.3298 45.4235 19.5052 45.6514 19.6328C45.8792 19.7604 46.1504 19.8242 46.4648 19.8242C46.7702 19.8242 47.0345 19.7604 47.2578 19.6328C47.4857 19.5052 47.6725 19.3298 47.8184 19.1064C47.9642 18.8831 48.0713 18.6234 48.1396 18.3271C48.2126 18.0309 48.249 17.7165 48.249 17.3838V17.2266C48.249 16.8984 48.2126 16.5885 48.1396 16.2969C48.0713 16.0007 47.9619 15.7386 47.8115 15.5107C47.6657 15.2829 47.4788 15.1051 47.251 14.9775C47.0277 14.8454 46.7611 14.7793 46.4512 14.7793C46.1413 14.7793 45.8724 14.8454 45.6445 14.9775C45.4212 15.1051 45.2367 15.2829 45.0908 15.5107C44.945 15.7386 44.8379 16.0007 44.7695 16.2969C44.7012 16.5885 44.667 16.8984 44.667 17.2266ZM54.2988 19.8242C54.5677 19.8242 54.8092 19.7718 55.0234 19.667C55.2422 19.5576 55.4176 19.4072 55.5498 19.2158C55.6865 19.0244 55.7617 18.8034 55.7754 18.5527H57.3271C57.318 19.0312 57.1768 19.4665 56.9033 19.8584C56.6299 20.2503 56.2676 20.5625 55.8164 20.7949C55.3652 21.0228 54.8662 21.1367 54.3193 21.1367C53.7542 21.1367 53.262 21.041 52.8428 20.8496C52.4235 20.6536 52.0749 20.3848 51.7969 20.043C51.5189 19.7012 51.3092 19.307 51.168 18.8604C51.0312 18.4137 50.9629 17.9352 50.9629 17.4248V17.1855C50.9629 16.6751 51.0312 16.1966 51.168 15.75C51.3092 15.2988 51.5189 14.9023 51.7969 14.5605C52.0749 14.2188 52.4235 13.9521 52.8428 13.7607C53.262 13.5648 53.752 13.4668 54.3125 13.4668C54.9049 13.4668 55.4245 13.5853 55.8711 13.8223C56.3177 14.0547 56.6686 14.3805 56.9238 14.7998C57.1836 15.2145 57.318 15.6976 57.3271 16.249H55.7754C55.7617 15.9756 55.6934 15.7295 55.5703 15.5107C55.4518 15.2874 55.2832 15.1097 55.0645 14.9775C54.8503 14.8454 54.5928 14.7793 54.292 14.7793C53.9593 14.7793 53.6836 14.8477 53.4648 14.9844C53.2461 15.1165 53.0752 15.2988 52.9521 15.5312C52.8291 15.7591 52.7402 16.0166 52.6855 16.3037C52.6354 16.5863 52.6104 16.8802 52.6104 17.1855V17.4248C52.6104 17.7301 52.6354 18.0264 52.6855 18.3135C52.7357 18.6006 52.8223 18.8581 52.9453 19.0859C53.0729 19.3092 53.2461 19.4893 53.4648 19.626C53.6836 19.7581 53.9616 19.8242 54.2988 19.8242ZM60.7383 20.1934L62.748 13.6035H64.5117L61.5449 22.1279C61.4766 22.3102 61.3877 22.5085 61.2783 22.7227C61.1689 22.9368 61.0254 23.1396 60.8477 23.3311C60.6745 23.527 60.458 23.6842 60.1982 23.8027C59.9385 23.9258 59.624 23.9873 59.2549 23.9873C59.109 23.9873 58.9678 23.9736 58.8311 23.9463C58.6989 23.9235 58.5736 23.8984 58.4551 23.8711L58.4482 22.6133C58.4938 22.6178 58.5485 22.6224 58.6123 22.627C58.6807 22.6315 58.7354 22.6338 58.7764 22.6338C59.0498 22.6338 59.2777 22.5996 59.46 22.5312C59.6423 22.4674 59.7904 22.3626 59.9043 22.2168C60.0228 22.071 60.123 21.875 60.2051 21.6289L60.7383 20.1934ZM59.6035 13.6035L61.3604 19.1406L61.6543 20.877L60.5127 21.1709L57.8262 13.6035H59.6035ZM70.377 13.6035V14.916H67.1504V21H65.5029V13.6035H70.377Z" fill="white"/>
</svg>
