<svg width="26" height="26" viewBox="0 0 26 26" fill="none" xmlns="http://www.w3.org/2000/svg">
<rect x="0.5" y="0.5" width="25" height="25" rx="12.5" stroke="#C1C9BE"/>
<path d="M7.75218 7.00033C7.60325 7.00036 7.45771 7.04483 7.33418 7.12804C7.21065 7.21124 7.11473 7.32941 7.05869 7.46743C7.00265 7.60545 6.98903 7.75706 7.01958 7.90286C7.05012 8.04866 7.12345 8.18204 7.23018 8.28594L11.9414 12.9984L7.23018 17.7108C7.15833 17.7798 7.10096 17.8625 7.06145 17.954C7.02193 18.0454 7.00105 18.1438 7.00004 18.2435C6.99903 18.3431 7.0179 18.4419 7.05554 18.5342C7.09319 18.6264 7.14886 18.7102 7.21929 18.7806C7.28973 18.8511 7.3735 18.9068 7.46572 18.9444C7.55793 18.9821 7.65674 19.001 7.75634 19C7.85594 18.9989 7.95433 18.9781 8.04576 18.9385C8.13719 18.899 8.21982 18.8416 8.28881 18.7698L13 14.0573L17.7112 18.7698C17.7802 18.8416 17.8628 18.899 17.9542 18.9385C18.0457 18.9781 18.1441 18.9989 18.2437 19C18.3433 19.001 18.4421 18.9821 18.5343 18.9444C18.6265 18.9068 18.7103 18.8511 18.7807 18.7806C18.8511 18.7102 18.9068 18.6264 18.9445 18.5342C18.9821 18.4419 19.001 18.3431 19 18.2435C18.9989 18.1438 18.9781 18.0454 18.9386 17.954C18.899 17.8625 18.8417 17.7798 18.7698 17.7108L14.0586 12.9984L18.7698 8.28594C18.878 8.18075 18.9519 8.04533 18.9818 7.89742C19.0117 7.74951 18.9963 7.59601 18.9375 7.45703C18.8787 7.31806 18.7793 7.20009 18.6523 7.1186C18.5253 7.0371 18.3767 6.99588 18.2259 7.00033C18.0314 7.00612 17.8468 7.08743 17.7112 7.22703L13 11.9395L8.28881 7.22703C8.21904 7.15529 8.13561 7.09827 8.04344 7.05933C7.95127 7.0204 7.85223 7.00033 7.75218 7.00033Z" fill="#434343"/>
</svg>
