<svg width="98" height="32" viewBox="0 0 98 32" fill="none" xmlns="http://www.w3.org/2000/svg">
<rect width="98" height="32" rx="8" fill="#548FD6"/>
<path d="M22.0448 12.5626C22.2772 12.5626 22.4736 12.4876 22.634 12.3375C22.7944 12.1875 22.8746 12.0015 22.8746 11.7797C22.8746 11.5579 22.796 11.3704 22.6388 11.2173C22.4816 11.0642 22.2868 10.9876 22.0544 10.9876C21.8221 10.9876 21.6257 11.0626 21.4652 11.2127C21.3048 11.3627 21.2246 11.5487 21.2246 11.7705C21.2246 11.9923 21.3032 12.1798 21.4604 12.3329C21.6176 12.486 21.8124 12.5626 22.0448 12.5626ZM18.7448 12.5626C18.9772 12.5626 19.1736 12.4876 19.334 12.3375C19.4944 12.1875 19.5746 12.0015 19.5746 11.7797C19.5746 11.5579 19.496 11.3704 19.3388 11.2173C19.1816 11.0642 18.9868 10.9876 18.7544 10.9876C18.5221 10.9876 18.3257 11.0626 18.1652 11.2127C18.0048 11.3627 17.9246 11.5487 17.9246 11.7705C17.9246 11.9923 18.0032 12.1798 18.1604 12.3329C18.3176 12.486 18.5124 12.5626 18.7448 12.5626ZM18.1996 15.9751H22.5996C22.5996 15.4793 22.3759 15.0928 21.9286 14.8157C21.4813 14.5386 20.9716 14.4001 20.3996 14.4001C19.8276 14.4001 19.3179 14.5386 18.8706 14.8157C18.4233 15.0928 18.1996 15.4793 18.1996 15.9751ZM11.5996 24.9001C10.0718 24.9001 8.77322 24.3897 7.70378 23.3688C6.63433 22.348 6.09961 21.1084 6.09961 19.6501V13.3501H17.0996V19.6501C17.0996 21.1084 16.5649 22.348 15.4954 23.3688C14.426 24.3897 13.1274 24.9001 11.5996 24.9001ZM11.5996 23.3251C12.6691 23.3251 13.5781 22.9678 14.3267 22.2532C15.0753 21.5386 15.4496 20.6709 15.4496 19.6501V14.9251H7.74961V19.6501C7.74961 20.6709 8.12391 21.5386 8.87253 22.2532C9.62114 22.9678 10.5302 23.3251 11.5996 23.3251ZM20.3996 19.6501C20.023 19.6501 19.6501 19.6136 19.2807 19.5407C18.9114 19.4678 18.551 19.3511 18.1996 19.1907V17.397C18.5052 17.6449 18.8477 17.8199 19.2273 17.922C19.6069 18.0241 19.9977 18.0751 20.3996 18.0751C21.4691 18.0751 22.3781 17.7178 23.1267 17.0032C23.8753 16.2886 24.2496 15.4209 24.2496 14.4001V9.6751H16.5496V12.3001H14.8996V8.1001H25.8996V14.4001C25.8996 15.8584 25.3649 17.098 24.2954 18.1188C23.226 19.1397 21.9274 19.6501 20.3996 19.6501ZM9.94477 17.8126C10.1772 17.8126 10.3736 17.7376 10.534 17.5875C10.6944 17.4375 10.7746 17.2515 10.7746 17.0297C10.7746 16.8079 10.696 16.6204 10.5388 16.4673C10.3816 16.3142 10.1868 16.2376 9.95444 16.2376C9.72205 16.2376 9.52565 16.3126 9.36523 16.4627C9.20482 16.6127 9.12461 16.7987 9.12461 17.0205C9.12461 17.2423 9.20321 17.4298 9.3604 17.5829C9.51761 17.736 9.7124 17.8126 9.94477 17.8126ZM13.2448 17.8126C13.4772 17.8126 13.6736 17.7376 13.834 17.5875C13.9944 17.4375 14.0746 17.2515 14.0746 17.0297C14.0746 16.8079 13.996 16.6204 13.8388 16.4673C13.6816 16.3142 13.4868 16.2376 13.2544 16.2376C13.0221 16.2376 12.8257 16.3126 12.6652 16.4627C12.5048 16.6127 12.4246 16.7987 12.4246 17.0205C12.4246 17.2423 12.5032 17.4298 12.6604 17.5829C12.8176 17.736 13.0124 17.8126 13.2448 17.8126ZM11.5996 21.2251C12.1716 21.2251 12.6813 21.0866 13.1286 20.8095C13.5759 20.5324 13.7996 20.1459 13.7996 19.6501H9.39961C9.39961 20.1459 9.62328 20.5324 10.0706 20.8095C10.5179 21.0866 11.0276 21.2251 11.5996 21.2251Z" fill="#F9FAF4"/>
<path d="M34.7549 11.0469V21H33.0459V11.0469H34.7549ZM40.7432 11.0469L36.6963 16.7207H34.2695L34.0371 15.2305H35.7461L38.6445 11.0469H40.7432ZM38.9932 21L35.7734 16.4609L36.8809 15.1416L41.0508 21H38.9932ZM43.7441 20.1934L45.7539 13.6035H47.5176L44.5508 22.1279C44.4824 22.3102 44.3936 22.5085 44.2842 22.7227C44.1748 22.9368 44.0312 23.1396 43.8535 23.3311C43.6803 23.527 43.4639 23.6842 43.2041 23.8027C42.9443 23.9258 42.6299 23.9873 42.2607 23.9873C42.1149 23.9873 41.9736 23.9736 41.8369 23.9463C41.7048 23.9235 41.5794 23.8984 41.4609 23.8711L41.4541 22.6133C41.4997 22.6178 41.5544 22.6224 41.6182 22.627C41.6865 22.6315 41.7412 22.6338 41.7822 22.6338C42.0557 22.6338 42.2835 22.5996 42.4658 22.5312C42.6481 22.4674 42.7962 22.3626 42.9102 22.2168C43.0286 22.071 43.1289 21.875 43.2109 21.6289L43.7441 20.1934ZM42.6094 13.6035L44.3662 19.1406L44.6602 20.877L43.5186 21.1709L40.832 13.6035H42.6094ZM53.1436 13.6035V14.916H49.5342V13.6035H53.1436ZM54.4355 13.6035V21H52.7881V13.6035H54.4355ZM49.1309 13.6035H50.7578L50.5596 17.2607C50.5322 17.8031 50.4775 18.2816 50.3955 18.6963C50.318 19.1064 50.2132 19.4596 50.0811 19.7559C49.9489 20.0475 49.7871 20.2845 49.5957 20.4668C49.4043 20.6491 49.181 20.7835 48.9258 20.8701C48.6706 20.9567 48.3835 21 48.0645 21H47.5518L47.5449 19.6465L47.8047 19.626C47.9733 19.6123 48.1191 19.569 48.2422 19.4961C48.3652 19.4186 48.4701 19.3092 48.5566 19.168C48.6478 19.0267 48.7207 18.8444 48.7754 18.6211C48.8346 18.3978 48.8802 18.1335 48.9121 17.8281C48.9486 17.5228 48.9759 17.1673 48.9941 16.7617L49.1309 13.6035ZM57.4092 15.9551H59.5898C60.2279 15.9551 60.7702 16.0622 61.2168 16.2764C61.6634 16.4906 62.0029 16.7891 62.2354 17.1719C62.4723 17.5501 62.5908 17.9831 62.5908 18.4707C62.5908 18.8307 62.5247 19.1657 62.3926 19.4756C62.2604 19.7809 62.0645 20.0475 61.8047 20.2754C61.5495 20.5033 61.235 20.681 60.8613 20.8086C60.4922 20.9362 60.0684 21 59.5898 21H56.3154V13.6035H57.9697V19.6943H59.5898C59.918 19.6943 60.18 19.6374 60.376 19.5234C60.5719 19.4095 60.7132 19.2614 60.7998 19.0791C60.891 18.8968 60.9365 18.7031 60.9365 18.498C60.9365 18.2884 60.891 18.0902 60.7998 17.9033C60.7132 17.7165 60.5719 17.5638 60.376 17.4453C60.18 17.3268 59.918 17.2676 59.5898 17.2676H57.4092V15.9551ZM66.6582 13.6035V21H65.0039V13.6035H66.6582ZM69.085 13.6035V14.9023H62.6182V13.6035H69.085ZM72.4141 20.1934L74.4238 13.6035H76.1875L73.2207 22.1279C73.1523 22.3102 73.0635 22.5085 72.9541 22.7227C72.8447 22.9368 72.7012 23.1396 72.5234 23.3311C72.3503 23.527 72.1338 23.6842 71.874 23.8027C71.6143 23.9258 71.2998 23.9873 70.9307 23.9873C70.7848 23.9873 70.6436 23.9736 70.5068 23.9463C70.3747 23.9235 70.2493 23.8984 70.1309 23.8711L70.124 22.6133C70.1696 22.6178 70.2243 22.6224 70.2881 22.627C70.3564 22.6315 70.4111 22.6338 70.4521 22.6338C70.7256 22.6338 70.9535 22.5996 71.1357 22.5312C71.318 22.4674 71.4661 22.3626 71.5801 22.2168C71.6986 22.071 71.7988 21.875 71.8809 21.6289L72.4141 20.1934ZM71.2793 13.6035L73.0361 19.1406L73.3301 20.877L72.1885 21.1709L69.502 13.6035H71.2793ZM78.7852 15.0254V23.8438H77.1377V13.6035H78.6553L78.7852 15.0254ZM83.6045 17.2334V17.377C83.6045 17.9147 83.5407 18.4137 83.4131 18.874C83.29 19.3298 83.1055 19.7285 82.8594 20.0703C82.6178 20.4076 82.3193 20.6696 81.9639 20.8564C81.6084 21.0433 81.1982 21.1367 80.7334 21.1367C80.2731 21.1367 79.8698 21.0524 79.5234 20.8838C79.1816 20.7106 78.8923 20.4668 78.6553 20.1523C78.4183 19.8379 78.2269 19.4688 78.0811 19.0449C77.9398 18.6165 77.8395 18.1471 77.7803 17.6367V17.083C77.8395 16.5407 77.9398 16.0485 78.0811 15.6064C78.2269 15.1644 78.4183 14.7839 78.6553 14.4648C78.8923 14.1458 79.1816 13.8997 79.5234 13.7266C79.8652 13.5534 80.264 13.4668 80.7197 13.4668C81.1846 13.4668 81.597 13.5579 81.957 13.7402C82.3171 13.918 82.6201 14.1732 82.8662 14.5059C83.1123 14.834 83.2969 15.2305 83.4199 15.6953C83.543 16.1556 83.6045 16.6683 83.6045 17.2334ZM81.957 17.377V17.2334C81.957 16.8916 81.9251 16.5749 81.8613 16.2832C81.7975 15.987 81.6973 15.7272 81.5605 15.5039C81.4238 15.2806 81.2484 15.1074 81.0342 14.9844C80.8245 14.8568 80.5716 14.793 80.2754 14.793C79.9837 14.793 79.7331 14.8431 79.5234 14.9434C79.3138 15.0391 79.1383 15.1735 78.9971 15.3467C78.8558 15.5199 78.7464 15.7227 78.6689 15.9551C78.5915 16.1829 78.5368 16.4313 78.5049 16.7002V18.0264C78.5596 18.3545 78.653 18.6553 78.7852 18.9287C78.9173 19.2021 79.1042 19.4209 79.3457 19.585C79.5918 19.7445 79.9062 19.8242 80.2891 19.8242C80.5853 19.8242 80.8382 19.7604 81.0479 19.6328C81.2575 19.5052 81.4284 19.3298 81.5605 19.1064C81.6973 18.8786 81.7975 18.6165 81.8613 18.3203C81.9251 18.0241 81.957 17.7096 81.957 17.377ZM89.1758 19.5166V15.9893C89.1758 15.7249 89.1279 15.4971 89.0322 15.3057C88.9365 15.1143 88.7907 14.9661 88.5947 14.8613C88.4033 14.7565 88.1618 14.7041 87.8701 14.7041C87.6012 14.7041 87.3688 14.7497 87.1729 14.8408C86.9769 14.932 86.8242 15.055 86.7148 15.21C86.6055 15.3649 86.5508 15.5404 86.5508 15.7363H84.9102C84.9102 15.4447 84.9808 15.1621 85.1221 14.8887C85.2633 14.6152 85.4684 14.3714 85.7373 14.1572C86.0062 13.943 86.3275 13.7744 86.7012 13.6514C87.0749 13.5283 87.4941 13.4668 87.959 13.4668C88.515 13.4668 89.0072 13.5602 89.4355 13.7471C89.8685 13.9339 90.208 14.2165 90.4541 14.5947C90.7048 14.9684 90.8301 15.4378 90.8301 16.0029V19.291C90.8301 19.6283 90.8529 19.9313 90.8984 20.2002C90.9486 20.4645 91.0192 20.6947 91.1104 20.8906V21H89.4219C89.3444 20.8223 89.2829 20.5967 89.2373 20.3232C89.1963 20.0452 89.1758 19.7764 89.1758 19.5166ZM89.415 16.502L89.4287 17.5205H88.2461C87.9408 17.5205 87.6719 17.5501 87.4395 17.6094C87.207 17.6641 87.0133 17.7461 86.8584 17.8555C86.7035 17.9648 86.5872 18.097 86.5098 18.252C86.4323 18.4069 86.3936 18.5824 86.3936 18.7783C86.3936 18.9743 86.4391 19.1543 86.5303 19.3184C86.6214 19.4779 86.7536 19.6032 86.9268 19.6943C87.1045 19.7855 87.3187 19.8311 87.5693 19.8311C87.9066 19.8311 88.2005 19.7627 88.4512 19.626C88.7064 19.4847 88.9069 19.3138 89.0527 19.1133C89.1986 18.9082 89.276 18.7145 89.2852 18.5322L89.8184 19.2637C89.7637 19.4505 89.6702 19.651 89.5381 19.8652C89.4059 20.0794 89.2327 20.2845 89.0186 20.4805C88.8089 20.6719 88.556 20.8291 88.2598 20.9521C87.9681 21.0752 87.6309 21.1367 87.248 21.1367C86.765 21.1367 86.3343 21.041 85.9561 20.8496C85.5778 20.6536 85.2816 20.3916 85.0674 20.0635C84.8532 19.7308 84.7461 19.3548 84.7461 18.9355C84.7461 18.5436 84.819 18.1973 84.9648 17.8965C85.1152 17.5911 85.334 17.3359 85.6211 17.1309C85.9128 16.9258 86.2682 16.7708 86.6875 16.666C87.1068 16.5566 87.5853 16.502 88.123 16.502H89.415Z" fill="white"/>
</svg>
