<svg width="60" height="40" viewBox="0 0 60 40" fill="none" xmlns="http://www.w3.org/2000/svg">
<g opacity="0.5">
<rect y="4" width="32" height="32" rx="8" fill="#D65454"/>
<path d="M8.35 28C7.975 28 7.65625 27.8704 7.39375 27.6111C7.13125 27.3519 7 27.037 7 26.6667V12L8.5075 13.4889L9.9925 12L11.5 13.4889L13.0075 12L14.4925 13.4889L16 12L17.5075 13.4889L18.9925 12L20.5 13.4889L22.0075 12L23.4925 13.4889L25 12V26.6667C25 27.037 24.8687 27.3519 24.6062 27.6111C24.3438 27.8704 24.025 28 23.65 28H8.35ZM8.35 26.6667H15.325V20.4444H8.35V26.6667ZM16.675 26.6667H23.65V24.2222H16.675V26.6667ZM16.675 22.8889H23.65V20.4444H16.675V22.8889ZM8.35 19.1111H23.65V16.4444H8.35V19.1111Z" fill="white"/>
</g>
<g opacity="0.75" filter="url(#filter0_d_152_25987)">
<rect x="12" y="4" width="32" height="32" rx="8" fill="#F9FAF4"/>
<rect x="13" y="5" width="30" height="30" rx="7" stroke="#548FD6" stroke-width="2"/>
<path d="M34.0452 16.5625C34.2776 16.5625 34.474 16.4875 34.6344 16.3374C34.7948 16.1873 34.875 16.0014 34.875 15.7796C34.875 15.5578 34.7964 15.3703 34.6392 15.2172C34.482 15.064 34.2872 14.9875 34.0548 14.9875C33.8225 14.9875 33.626 15.0625 33.4656 15.2125C33.3052 15.3626 33.225 15.5485 33.225 15.7704C33.225 15.9922 33.3036 16.1797 33.4608 16.3328C33.618 16.4859 33.8128 16.5625 34.0452 16.5625ZM30.7452 16.5625C30.9776 16.5625 31.174 16.4875 31.3344 16.3374C31.4948 16.1873 31.575 16.0014 31.575 15.7796C31.575 15.5578 31.4964 15.3703 31.3392 15.2172C31.182 15.064 30.9872 14.9875 30.7548 14.9875C30.5225 14.9875 30.326 15.0625 30.1656 15.2125C30.0052 15.3626 29.925 15.5485 29.925 15.7704C29.925 15.9922 30.0036 16.1797 30.1608 16.3328C30.318 16.4859 30.5128 16.5625 30.7452 16.5625ZM30.2 19.975H34.6C34.6 19.4791 34.3763 19.0927 33.929 18.8156C33.4817 18.5385 32.972 18.4 32.4 18.4C31.828 18.4 31.3183 18.5385 30.871 18.8156C30.4237 19.0927 30.2 19.4791 30.2 19.975ZM23.6 28.9C22.0722 28.9 20.7736 28.3896 19.7042 27.3687C18.6347 26.3479 18.1 25.1083 18.1 23.65V17.35H29.1V23.65C29.1 25.1083 28.5653 26.3479 27.4958 27.3687C26.4264 28.3896 25.1278 28.9 23.6 28.9ZM23.6 27.325C24.6695 27.325 25.5785 26.9677 26.3271 26.2531C27.0757 25.5385 27.45 24.6708 27.45 23.65V18.925H19.75V23.65C19.75 24.6708 20.1243 25.5385 20.8729 26.2531C21.6215 26.9677 22.5306 27.325 23.6 27.325ZM32.4 23.65C32.0234 23.65 31.6505 23.6135 31.2811 23.5406C30.9118 23.4677 30.5514 23.351 30.2 23.1906V21.3969C30.5056 21.6448 30.8481 21.8198 31.2277 21.9219C31.6073 22.0239 31.9981 22.075 32.4 22.075C33.4695 22.075 34.3785 21.7177 35.1271 21.0031C35.8757 20.2885 36.25 19.4208 36.25 18.4V13.675H28.55V16.3H26.9V12.1H37.9V18.4C37.9 19.8583 37.3653 21.0979 36.2958 22.1187C35.2264 23.1396 33.9278 23.65 32.4 23.65ZM21.9452 21.8125C22.1776 21.8125 22.374 21.7375 22.5344 21.5874C22.6948 21.4373 22.775 21.2514 22.775 21.0296C22.775 20.8078 22.6964 20.6203 22.5392 20.4672C22.382 20.314 22.1872 20.2375 21.9548 20.2375C21.7225 20.2375 21.526 20.3125 21.3656 20.4625C21.2052 20.6126 21.125 20.7985 21.125 21.0204C21.125 21.2422 21.2036 21.4297 21.3608 21.5828C21.518 21.7359 21.7128 21.8125 21.9452 21.8125ZM25.2452 21.8125C25.4776 21.8125 25.674 21.7375 25.8344 21.5874C25.9948 21.4373 26.075 21.2514 26.075 21.0296C26.075 20.8078 25.9964 20.6203 25.8392 20.4672C25.682 20.314 25.4872 20.2375 25.2548 20.2375C25.0225 20.2375 24.826 20.3125 24.6656 20.4625C24.5052 20.6126 24.425 20.7985 24.425 21.0204C24.425 21.2422 24.5036 21.4297 24.6608 21.5828C24.818 21.7359 25.0128 21.8125 25.2452 21.8125ZM23.6 25.225C24.172 25.225 24.6817 25.0864 25.129 24.8094C25.5763 24.5323 25.8 24.1458 25.8 23.65H21.4C21.4 24.1458 21.6237 24.5323 22.071 24.8094C22.5183 25.0864 23.028 25.225 23.6 25.225Z" fill="#1A1C19"/>
</g>
<g filter="url(#filter1_d_152_25987)">
<rect x="24" y="4" width="32" height="32" rx="8" fill="#D6B154"/>
<path d="M34.5823 28.7L35.7562 26.1125C35.5326 25.9528 35.317 25.789 35.1094 25.6213C34.9017 25.4536 34.7021 25.266 34.5104 25.0583C34.3826 25.0903 34.2828 25.1062 34.2109 25.1062H34.0073C33.4642 25.1062 33.005 24.9106 32.6297 24.5193C32.2543 24.1279 32.0667 23.6528 32.0667 23.0937C32.0667 22.8542 32.1146 22.6226 32.2104 22.3989C32.3062 22.1753 32.442 21.9677 32.6177 21.776C32.4899 21.4566 32.4021 21.1132 32.3542 20.7458C32.3062 20.3785 32.2823 19.9632 32.2823 19.5C32.2823 19.0368 32.3102 18.6215 32.3661 18.2542C32.422 17.8868 32.5059 17.5434 32.6177 17.2239C32.442 17.0483 32.3102 16.8406 32.2224 16.601C32.1345 16.3614 32.0906 16.1139 32.0906 15.8583C32.0906 15.3153 32.2783 14.8561 32.6536 14.4807C33.029 14.1054 33.4802 13.9177 34.0073 13.9177H34.4146C34.4465 13.9177 34.4865 13.9257 34.5344 13.9417C35.0455 13.3826 35.6325 12.9114 36.2953 12.5281C36.9582 12.1448 37.6729 11.8653 38.4396 11.6896C38.5674 11.2743 38.8069 10.9389 39.1583 10.6833C39.5097 10.4278 39.901 10.3 40.3323 10.3C40.7635 10.3 41.1549 10.4278 41.5063 10.6833C41.8576 10.9389 42.0972 11.2743 42.225 11.6896C42.9757 11.8653 43.6825 12.1448 44.3453 12.5281C45.0082 12.9114 45.6031 13.3826 46.1302 13.9417C46.258 13.9257 46.3578 13.9137 46.4297 13.9057C46.5016 13.8977 46.5774 13.8937 46.6573 13.8937C47.1844 13.8937 47.6356 14.0854 48.0109 14.4687C48.3863 14.8521 48.574 15.3233 48.574 15.8823C48.574 16.1378 48.53 16.3814 48.4422 16.613C48.3543 16.8446 48.2226 17.0483 48.0469 17.2239C48.1587 17.6073 48.2425 17.9906 48.2984 18.3739C48.3543 18.7573 48.3823 19.1326 48.3823 19.5C48.3823 19.9632 48.3583 20.3785 48.3104 20.7458C48.2625 21.1132 48.1826 21.4566 48.0708 21.776C48.2465 21.9517 48.3743 22.1554 48.4542 22.387C48.534 22.6186 48.574 22.8621 48.574 23.1177C48.574 23.6767 48.3863 24.1479 48.0109 24.5312C47.6356 24.9146 47.1844 25.1062 46.6573 25.1062C46.5774 25.1062 46.4936 25.1022 46.4057 25.0943C46.3179 25.0863 46.234 25.0743 46.1542 25.0583C45.7868 25.3937 45.5273 25.6293 45.3755 25.7651C45.2238 25.9009 45.0681 26.0167 44.9083 26.1125L46.1063 28.7H44.1896L43.375 26.951C43.1674 27.0309 42.9677 27.0988 42.776 27.1547C42.5844 27.2106 42.4007 27.2625 42.225 27.3104C42.0813 27.7257 41.8417 28.0611 41.5063 28.3167C41.1708 28.5722 40.7795 28.7 40.3323 28.7C39.901 28.7 39.5177 28.5762 39.1823 28.3286C38.8469 28.0811 38.5993 27.7417 38.4396 27.3104C38.2319 27.2625 38.0323 27.2106 37.8406 27.1547C37.649 27.0988 37.4653 27.0309 37.2896 26.951L36.475 28.7H34.5823ZM36.5229 24.5312L37.7687 21.8C37.4812 21.4646 37.2616 21.1012 37.1099 20.7099C36.9582 20.3186 36.8823 19.9153 36.8823 19.5C36.8823 18.5417 37.2177 17.7271 37.8885 17.0562C38.5594 16.3854 39.374 16.05 40.3323 16.05C41.2906 16.05 42.1052 16.3854 42.776 17.0562C43.4469 17.7271 43.7823 18.5417 43.7823 19.5C43.7823 19.9153 43.7064 20.3226 43.5547 20.7219C43.403 21.1212 43.1833 21.4805 42.8958 21.8L44.1656 24.5312C44.2774 24.4514 44.3813 24.3675 44.4771 24.2797C44.5729 24.1918 44.6688 24.1 44.7646 24.0042C44.6847 23.8604 44.6288 23.7167 44.5969 23.5729C44.5649 23.4292 44.549 23.2774 44.549 23.1177C44.549 22.5746 44.7286 22.1075 45.088 21.7161C45.4474 21.3248 45.8986 21.1132 46.4417 21.0812C46.5215 20.8257 46.5774 20.5661 46.6094 20.3026C46.6413 20.039 46.6573 19.7715 46.6573 19.5C46.6573 19.2285 46.6413 18.9649 46.6094 18.7094C46.5774 18.4538 46.5215 18.1903 46.4417 17.9187C45.8986 17.8868 45.4474 17.6752 45.088 17.2838C44.7286 16.8925 44.549 16.4253 44.549 15.8823C44.549 15.7226 44.5689 15.5708 44.6089 15.4271C44.6488 15.2833 44.7007 15.1396 44.7646 14.9958C44.3813 14.6285 43.954 14.309 43.4828 14.0375C43.0116 13.766 42.5205 13.5583 42.0094 13.4146C41.8337 13.7021 41.5941 13.9257 41.2906 14.0854C40.9872 14.2451 40.6677 14.325 40.3323 14.325C39.9969 14.325 39.6774 14.2451 39.374 14.0854C39.0705 13.9257 38.8309 13.7021 38.6552 13.4146C38.1441 13.5583 37.653 13.766 37.1818 14.0375C36.7106 14.309 36.2833 14.6285 35.9 14.9958C35.9639 15.1236 36.0158 15.2594 36.0557 15.4031C36.0957 15.5469 36.1156 15.6986 36.1156 15.8583C36.1156 16.4014 35.9359 16.8726 35.5766 17.2719C35.2172 17.6712 34.766 17.8868 34.2229 17.9187C34.1271 18.1903 34.0672 18.4618 34.0432 18.7333C34.0193 19.0048 34.0073 19.2764 34.0073 19.5479C34.0073 19.8194 34.0233 20.083 34.0552 20.3385C34.0872 20.5941 34.1431 20.8417 34.2229 21.0812C34.75 21.1451 35.1972 21.3647 35.5646 21.7401C35.9319 22.1154 36.1156 22.5667 36.1156 23.0937C36.1156 23.2535 36.0997 23.4092 36.0677 23.5609C36.0358 23.7127 35.9799 23.8604 35.9 24.0042C35.9958 24.1 36.0957 24.1918 36.1995 24.2797C36.3033 24.3675 36.4111 24.4514 36.5229 24.5312ZM38.0323 25.3937C38.1441 25.4257 38.2479 25.4576 38.3438 25.4896C38.4396 25.5215 38.5434 25.5535 38.6552 25.5854C38.8469 25.3139 39.0905 25.0943 39.3859 24.9265C39.6814 24.7588 39.9969 24.675 40.3323 24.675C40.6677 24.675 40.9792 24.7588 41.2667 24.9265C41.5542 25.0943 41.8017 25.3139 42.0094 25.5854C42.1212 25.5535 42.225 25.5175 42.3208 25.4776C42.4167 25.4377 42.5205 25.4017 42.6323 25.3698L41.4344 22.7583C41.2587 22.8222 41.079 22.8701 40.8953 22.9021C40.7116 22.934 40.5319 22.95 40.3562 22.95C40.1646 22.95 39.9729 22.934 39.7812 22.9021C39.5896 22.8701 39.4059 22.8222 39.2302 22.7583L38.0323 25.3937ZM40.3323 21.225C40.8115 21.225 41.2188 21.0573 41.5542 20.7219C41.8896 20.3864 42.0573 19.9792 42.0573 19.5C42.0573 19.0208 41.8896 18.6135 41.5542 18.2781C41.2188 17.9427 40.8115 17.775 40.3323 17.775C39.8531 17.775 39.4458 17.9427 39.1104 18.2781C38.775 18.6135 38.6073 19.0208 38.6073 19.5C38.6073 19.9792 38.775 20.3864 39.1104 20.7219C39.4458 21.0573 39.8531 21.225 40.3323 21.225Z" fill="#FCFDF7"/>
</g>
<defs>
<filter id="filter0_d_152_25987" x="8" y="0" width="40" height="40" filterUnits="userSpaceOnUse" color-interpolation-filters="sRGB">
<feFlood flood-opacity="0" result="BackgroundImageFix"/>
<feColorMatrix in="SourceAlpha" type="matrix" values="0 0 0 0 0 0 0 0 0 0 0 0 0 0 0 0 0 0 127 0" result="hardAlpha"/>
<feOffset/>
<feGaussianBlur stdDeviation="2"/>
<feComposite in2="hardAlpha" operator="out"/>
<feColorMatrix type="matrix" values="0 0 0 0 0 0 0 0 0 0 0 0 0 0 0 0 0 0 0.25 0"/>
<feBlend mode="normal" in2="BackgroundImageFix" result="effect1_dropShadow_152_25987"/>
<feBlend mode="normal" in="SourceGraphic" in2="effect1_dropShadow_152_25987" result="shape"/>
</filter>
<filter id="filter1_d_152_25987" x="20" y="0" width="40" height="40" filterUnits="userSpaceOnUse" color-interpolation-filters="sRGB">
<feFlood flood-opacity="0" result="BackgroundImageFix"/>
<feColorMatrix in="SourceAlpha" type="matrix" values="0 0 0 0 0 0 0 0 0 0 0 0 0 0 0 0 0 0 127 0" result="hardAlpha"/>
<feOffset/>
<feGaussianBlur stdDeviation="2"/>
<feComposite in2="hardAlpha" operator="out"/>
<feColorMatrix type="matrix" values="0 0 0 0 0 0 0 0 0 0 0 0 0 0 0 0 0 0 0.25 0"/>
<feBlend mode="normal" in2="BackgroundImageFix" result="effect1_dropShadow_152_25987"/>
<feBlend mode="normal" in="SourceGraphic" in2="effect1_dropShadow_152_25987" result="shape"/>
</filter>
</defs>
</svg>
