<svg width="87" height="32" viewBox="0 0 87 32" fill="none" xmlns="http://www.w3.org/2000/svg">
<rect width="87" height="32" rx="8" fill="#D65454"/>
<path d="M8.35 24C7.975 24 7.65625 23.8704 7.39375 23.6111C7.13125 23.3519 7 23.037 7 22.6667V8L8.5075 9.48889L9.9925 8L11.5 9.48889L13.0075 8L14.4925 9.48889L16 8L17.5075 9.48889L18.9925 8L20.5 9.48889L22.0075 8L23.4925 9.48889L25 8V22.6667C25 23.037 24.8687 23.3519 24.6062 23.6111C24.3438 23.8704 24.025 24 23.65 24H8.35ZM8.35 22.6667H15.325V16.4444H8.35V22.6667ZM16.675 22.6667H23.65V20.2222H16.675V22.6667ZM16.675 18.8889H23.65V16.4444H16.675V18.8889ZM8.35 15.1111H23.65V12.4444H8.35V15.1111Z" fill="white"/>
<path d="M38.8906 17.7598H40.5996C40.5449 18.4115 40.3626 18.9925 40.0527 19.5029C39.7428 20.0088 39.3076 20.4076 38.7471 20.6992C38.1865 20.9909 37.5052 21.1367 36.7031 21.1367C36.0879 21.1367 35.5342 21.0273 35.042 20.8086C34.5498 20.5853 34.1283 20.2708 33.7773 19.8652C33.4264 19.4551 33.1576 18.9606 32.9707 18.3818C32.7884 17.8031 32.6973 17.1559 32.6973 16.4404V15.6133C32.6973 14.8978 32.7907 14.2507 32.9775 13.6719C33.1689 13.0931 33.4424 12.5986 33.7979 12.1885C34.1533 11.7738 34.5794 11.457 35.0762 11.2383C35.5775 11.0195 36.1403 10.9102 36.7646 10.9102C37.5576 10.9102 38.2275 11.056 38.7744 11.3477C39.3213 11.6393 39.7451 12.0426 40.0459 12.5576C40.3512 13.0726 40.5381 13.6628 40.6064 14.3281H38.8975C38.8519 13.8997 38.7516 13.5329 38.5967 13.2275C38.4463 12.9222 38.223 12.6898 37.9268 12.5303C37.6305 12.3662 37.2432 12.2842 36.7646 12.2842C36.3727 12.2842 36.0309 12.3571 35.7393 12.5029C35.4476 12.6488 35.2038 12.863 35.0078 13.1455C34.8118 13.4281 34.6637 13.7767 34.5635 14.1914C34.4678 14.6016 34.4199 15.071 34.4199 15.5996V16.4404C34.4199 16.9417 34.4632 17.3975 34.5498 17.8076C34.641 18.2132 34.7777 18.5618 34.96 18.8535C35.1468 19.1452 35.3838 19.3708 35.6709 19.5303C35.958 19.6898 36.3021 19.7695 36.7031 19.7695C37.1908 19.7695 37.585 19.6921 37.8857 19.5371C38.1911 19.3822 38.4212 19.1566 38.5762 18.8604C38.7357 18.5596 38.8405 18.1927 38.8906 17.7598ZM43.6484 15.0254V23.8438H42.001V13.6035H43.5186L43.6484 15.0254ZM48.4678 17.2334V17.377C48.4678 17.9147 48.404 18.4137 48.2764 18.874C48.1533 19.3298 47.9688 19.7285 47.7227 20.0703C47.4811 20.4076 47.1826 20.6696 46.8271 20.8564C46.4717 21.0433 46.0615 21.1367 45.5967 21.1367C45.1364 21.1367 44.7331 21.0524 44.3867 20.8838C44.0449 20.7106 43.7555 20.4668 43.5186 20.1523C43.2816 19.8379 43.0902 19.4688 42.9443 19.0449C42.8031 18.6165 42.7028 18.1471 42.6436 17.6367V17.083C42.7028 16.5407 42.8031 16.0485 42.9443 15.6064C43.0902 15.1644 43.2816 14.7839 43.5186 14.4648C43.7555 14.1458 44.0449 13.8997 44.3867 13.7266C44.7285 13.5534 45.1273 13.4668 45.583 13.4668C46.0479 13.4668 46.4603 13.5579 46.8203 13.7402C47.1803 13.918 47.4834 14.1732 47.7295 14.5059C47.9756 14.834 48.1602 15.2305 48.2832 15.6953C48.4062 16.1556 48.4678 16.6683 48.4678 17.2334ZM46.8203 17.377V17.2334C46.8203 16.8916 46.7884 16.5749 46.7246 16.2832C46.6608 15.987 46.5605 15.7272 46.4238 15.5039C46.2871 15.2806 46.1117 15.1074 45.8975 14.9844C45.6878 14.8568 45.4349 14.793 45.1387 14.793C44.847 14.793 44.5964 14.8431 44.3867 14.9434C44.1771 15.0391 44.0016 15.1735 43.8604 15.3467C43.7191 15.5199 43.6097 15.7227 43.5322 15.9551C43.4548 16.1829 43.4001 16.4313 43.3682 16.7002V18.0264C43.4229 18.3545 43.5163 18.6553 43.6484 18.9287C43.7806 19.2021 43.9674 19.4209 44.209 19.585C44.4551 19.7445 44.7695 19.8242 45.1523 19.8242C45.4486 19.8242 45.7015 19.7604 45.9111 19.6328C46.1208 19.5052 46.2917 19.3298 46.4238 19.1064C46.5605 18.8786 46.6608 18.6165 46.7246 18.3203C46.7884 18.0241 46.8203 17.7096 46.8203 17.377ZM49.5547 17.3838V17.2266C49.5547 16.6934 49.6322 16.1989 49.7871 15.7432C49.9421 15.2829 50.1654 14.8841 50.457 14.5469C50.7533 14.2051 51.1133 13.9408 51.5371 13.7539C51.9655 13.5625 52.4486 13.4668 52.9863 13.4668C53.5286 13.4668 54.0117 13.5625 54.4355 13.7539C54.8639 13.9408 55.2262 14.2051 55.5225 14.5469C55.8187 14.8841 56.0443 15.2829 56.1992 15.7432C56.3542 16.1989 56.4316 16.6934 56.4316 17.2266V17.3838C56.4316 17.917 56.3542 18.4115 56.1992 18.8672C56.0443 19.3229 55.8187 19.7217 55.5225 20.0635C55.2262 20.4007 54.8662 20.665 54.4424 20.8564C54.0186 21.0433 53.5378 21.1367 53 21.1367C52.4577 21.1367 51.9723 21.0433 51.5439 20.8564C51.1201 20.665 50.7601 20.4007 50.4639 20.0635C50.1676 19.7217 49.9421 19.3229 49.7871 18.8672C49.6322 18.4115 49.5547 17.917 49.5547 17.3838ZM51.2021 17.2266V17.3838C51.2021 17.7165 51.2363 18.0309 51.3047 18.3271C51.373 18.6234 51.4801 18.8831 51.626 19.1064C51.7718 19.3298 51.9587 19.5052 52.1865 19.6328C52.4144 19.7604 52.6855 19.8242 53 19.8242C53.3053 19.8242 53.5697 19.7604 53.793 19.6328C54.0208 19.5052 54.2077 19.3298 54.3535 19.1064C54.4993 18.8831 54.6064 18.6234 54.6748 18.3271C54.7477 18.0309 54.7842 17.7165 54.7842 17.3838V17.2266C54.7842 16.8984 54.7477 16.5885 54.6748 16.2969C54.6064 16.0007 54.4971 15.7386 54.3467 15.5107C54.2008 15.2829 54.014 15.1051 53.7861 14.9775C53.5628 14.8454 53.2962 14.7793 52.9863 14.7793C52.6764 14.7793 52.4076 14.8454 52.1797 14.9775C51.9564 15.1051 51.7718 15.2829 51.626 15.5107C51.4801 15.7386 51.373 16.0007 51.3047 16.2969C51.2363 16.5885 51.2021 16.8984 51.2021 17.2266ZM63.7529 13.6035V21H62.1055V13.6035H63.7529ZM63.0557 16.8779V18.1836C62.8551 18.2702 62.6296 18.3499 62.3789 18.4229C62.1328 18.4912 61.873 18.5482 61.5996 18.5938C61.3262 18.6348 61.0505 18.6553 60.7725 18.6553C60.1208 18.6553 59.5579 18.555 59.084 18.3545C58.6146 18.154 58.2523 17.8464 57.9971 17.4316C57.7464 17.0124 57.6211 16.4814 57.6211 15.8389V13.5967H59.2617V15.8389C59.2617 16.208 59.3164 16.502 59.4258 16.7207C59.5397 16.9395 59.7083 17.0967 59.9316 17.1924C60.1549 17.2881 60.4352 17.3359 60.7725 17.3359C61.055 17.3359 61.3216 17.3177 61.5723 17.2812C61.8229 17.2402 62.0713 17.1855 62.3174 17.1172C62.5635 17.0488 62.8096 16.9691 63.0557 16.8779ZM70.5615 16.6934V17.9922H66.7334V16.6934H70.5615ZM67.2119 13.6035V21H65.5645V13.6035H67.2119ZM71.751 13.6035V21H70.1035V13.6035H71.751ZM73.1934 17.3838V17.2266C73.1934 16.6934 73.2708 16.1989 73.4258 15.7432C73.5807 15.2829 73.804 14.8841 74.0957 14.5469C74.3919 14.2051 74.752 13.9408 75.1758 13.7539C75.6042 13.5625 76.0872 13.4668 76.625 13.4668C77.1673 13.4668 77.6504 13.5625 78.0742 13.7539C78.5026 13.9408 78.8649 14.2051 79.1611 14.5469C79.4574 14.8841 79.6829 15.2829 79.8379 15.7432C79.9928 16.1989 80.0703 16.6934 80.0703 17.2266V17.3838C80.0703 17.917 79.9928 18.4115 79.8379 18.8672C79.6829 19.3229 79.4574 19.7217 79.1611 20.0635C78.8649 20.4007 78.5049 20.665 78.0811 20.8564C77.6572 21.0433 77.1764 21.1367 76.6387 21.1367C76.0964 21.1367 75.611 21.0433 75.1826 20.8564C74.7588 20.665 74.3988 20.4007 74.1025 20.0635C73.8063 19.7217 73.5807 19.3229 73.4258 18.8672C73.2708 18.4115 73.1934 17.917 73.1934 17.3838ZM74.8408 17.2266V17.3838C74.8408 17.7165 74.875 18.0309 74.9434 18.3271C75.0117 18.6234 75.1188 18.8831 75.2646 19.1064C75.4105 19.3298 75.5973 19.5052 75.8252 19.6328C76.0531 19.7604 76.3242 19.8242 76.6387 19.8242C76.944 19.8242 77.2083 19.7604 77.4316 19.6328C77.6595 19.5052 77.8464 19.3298 77.9922 19.1064C78.138 18.8831 78.2451 18.6234 78.3135 18.3271C78.3864 18.0309 78.4229 17.7165 78.4229 17.3838V17.2266C78.4229 16.8984 78.3864 16.5885 78.3135 16.2969C78.2451 16.0007 78.1357 15.7386 77.9854 15.5107C77.8395 15.2829 77.6527 15.1051 77.4248 14.9775C77.2015 14.8454 76.9349 14.7793 76.625 14.7793C76.3151 14.7793 76.0462 14.8454 75.8184 14.9775C75.5951 15.1051 75.4105 15.2829 75.2646 15.5107C75.1188 15.7386 75.0117 16.0007 74.9434 16.2969C74.875 16.5885 74.8408 16.8984 74.8408 17.2266Z" fill="white"/>
</svg>
