<svg width="95" height="26" viewBox="0 0 95 26" fill="none" xmlns="http://www.w3.org/2000/svg">
<path d="M4 21C3.45 21 2.97917 20.8042 2.5875 20.4125C2.19583 20.0208 2 19.55 2 19V3L3.675 4.675L5.325 3L7 4.675L8.675 3L10.325 4.675L12 3L13.675 4.675L15.325 3L17 4.675L18.675 3L20.325 4.675L22 3V19C22 19.55 21.8042 20.0208 21.4125 20.4125C21.0208 20.8042 20.55 21 20 21H4ZM4 19H11V13H4V19ZM13 19H20V17H13V19ZM13 15H20V13H13V15ZM4 11H20V8H4V11Z" fill="#414941"/>
<path d="M38.6719 11.375V12.9297H32.6328V11.375H38.6719ZM33.1172 6.625V18H31.1562V6.625H33.1172ZM40.1797 6.625V18H38.2266V6.625H40.1797ZM41.9688 13.8672V13.6875C41.9688 13.0781 42.0573 12.513 42.2344 11.9922C42.4115 11.4661 42.6667 11.0104 43 10.625C43.3385 10.2344 43.75 9.93229 44.2344 9.71875C44.724 9.5 45.276 9.39062 45.8906 9.39062C46.5104 9.39062 47.0625 9.5 47.5469 9.71875C48.0365 9.93229 48.4505 10.2344 48.7891 10.625C49.1276 11.0104 49.3854 11.4661 49.5625 11.9922C49.7396 12.513 49.8281 13.0781 49.8281 13.6875V13.8672C49.8281 14.4766 49.7396 15.0417 49.5625 15.5625C49.3854 16.0833 49.1276 16.5391 48.7891 16.9297C48.4505 17.3151 48.0391 17.6172 47.5547 17.8359C47.0703 18.0495 46.5208 18.1562 45.9062 18.1562C45.2865 18.1562 44.7318 18.0495 44.2422 17.8359C43.7578 17.6172 43.3464 17.3151 43.0078 16.9297C42.6693 16.5391 42.4115 16.0833 42.2344 15.5625C42.0573 15.0417 41.9688 14.4766 41.9688 13.8672ZM43.8516 13.6875V13.8672C43.8516 14.2474 43.8906 14.6068 43.9688 14.9453C44.0469 15.2839 44.1693 15.5807 44.3359 15.8359C44.5026 16.0911 44.7161 16.2917 44.9766 16.4375C45.237 16.5833 45.5469 16.6562 45.9062 16.6562C46.2552 16.6562 46.5573 16.5833 46.8125 16.4375C47.0729 16.2917 47.2865 16.0911 47.4531 15.8359C47.6198 15.5807 47.7422 15.2839 47.8203 14.9453C47.9036 14.6068 47.9453 14.2474 47.9453 13.8672V13.6875C47.9453 13.3125 47.9036 12.9583 47.8203 12.625C47.7422 12.2865 47.6172 11.987 47.4453 11.7266C47.2786 11.4661 47.0651 11.263 46.8047 11.1172C46.5495 10.9661 46.2448 10.8906 45.8906 10.8906C45.5365 10.8906 45.2292 10.9661 44.9688 11.1172C44.7135 11.263 44.5026 11.4661 44.3359 11.7266C44.1693 11.987 44.0469 12.2865 43.9688 12.625C43.8906 12.9583 43.8516 13.3125 43.8516 13.6875ZM55.5156 14.3828H52.8125L52.7969 13.0547H55.0156C55.3802 13.0547 55.6797 13.0182 55.9141 12.9453C56.1536 12.8724 56.3307 12.763 56.4453 12.6172C56.5599 12.4661 56.6172 12.2839 56.6172 12.0703C56.6172 11.8932 56.5833 11.7396 56.5156 11.6094C56.4479 11.474 56.3438 11.3646 56.2031 11.2812C56.0677 11.1927 55.8958 11.1302 55.6875 11.0938C55.4844 11.0521 55.2474 11.0312 54.9766 11.0312H53.4375V18H51.5547V9.54688H54.9766C55.5182 9.54688 56.0052 9.59375 56.4375 9.6875C56.875 9.78125 57.2474 9.92448 57.5547 10.1172C57.862 10.3099 58.0964 10.5547 58.2578 10.8516C58.4245 11.1432 58.5078 11.487 58.5078 11.8828C58.5078 12.1432 58.4505 12.388 58.3359 12.6172C58.2266 12.8464 58.0625 13.0495 57.8438 13.2266C57.625 13.4036 57.3568 13.5495 57.0391 13.6641C56.7214 13.7734 56.3568 13.8411 55.9453 13.8672L55.5156 14.3828ZM55.5156 18H52.2656L53.0156 16.5156H55.5156C55.849 16.5156 56.125 16.474 56.3438 16.3906C56.5625 16.3073 56.724 16.1875 56.8281 16.0312C56.9375 15.8698 56.9922 15.6797 56.9922 15.4609C56.9922 15.237 56.9401 15.0443 56.8359 14.8828C56.7318 14.7214 56.5703 14.599 56.3516 14.5156C56.138 14.4271 55.8594 14.3828 55.5156 14.3828H53.3672L53.3828 13.0547H55.9375L56.4766 13.5703C57.013 13.6068 57.4583 13.7214 57.8125 13.9141C58.1667 14.1068 58.4323 14.349 58.6094 14.6406C58.7865 14.9323 58.875 15.25 58.875 15.5938C58.875 15.9896 58.7995 16.3385 58.6484 16.6406C58.5026 16.9427 58.2839 17.1953 57.9922 17.3984C57.7057 17.5964 57.3542 17.7474 56.9375 17.8516C56.5208 17.9505 56.0469 18 55.5156 18ZM60.1406 13.8672V13.6875C60.1406 13.0781 60.2292 12.513 60.4062 11.9922C60.5833 11.4661 60.8385 11.0104 61.1719 10.625C61.5104 10.2344 61.9219 9.93229 62.4062 9.71875C62.8958 9.5 63.4479 9.39062 64.0625 9.39062C64.6823 9.39062 65.2344 9.5 65.7188 9.71875C66.2083 9.93229 66.6224 10.2344 66.9609 10.625C67.2995 11.0104 67.5573 11.4661 67.7344 11.9922C67.9115 12.513 68 13.0781 68 13.6875V13.8672C68 14.4766 67.9115 15.0417 67.7344 15.5625C67.5573 16.0833 67.2995 16.5391 66.9609 16.9297C66.6224 17.3151 66.2109 17.6172 65.7266 17.8359C65.2422 18.0495 64.6927 18.1562 64.0781 18.1562C63.4583 18.1562 62.9036 18.0495 62.4141 17.8359C61.9297 17.6172 61.5182 17.3151 61.1797 16.9297C60.8411 16.5391 60.5833 16.0833 60.4062 15.5625C60.2292 15.0417 60.1406 14.4766 60.1406 13.8672ZM62.0234 13.6875V13.8672C62.0234 14.2474 62.0625 14.6068 62.1406 14.9453C62.2188 15.2839 62.3411 15.5807 62.5078 15.8359C62.6745 16.0911 62.888 16.2917 63.1484 16.4375C63.4089 16.5833 63.7188 16.6562 64.0781 16.6562C64.4271 16.6562 64.7292 16.5833 64.9844 16.4375C65.2448 16.2917 65.4583 16.0911 65.625 15.8359C65.7917 15.5807 65.9141 15.2839 65.9922 14.9453C66.0755 14.6068 66.1172 14.2474 66.1172 13.8672V13.6875C66.1172 13.3125 66.0755 12.9583 65.9922 12.625C65.9141 12.2865 65.7891 11.987 65.6172 11.7266C65.4505 11.4661 65.237 11.263 64.9766 11.1172C64.7214 10.9661 64.4167 10.8906 64.0625 10.8906C63.7083 10.8906 63.401 10.9661 63.1406 11.1172C62.8854 11.263 62.6745 11.4661 62.5078 11.7266C62.3411 11.987 62.2188 12.2865 62.1406 12.625C62.0625 12.9583 62.0234 13.3125 62.0234 13.6875ZM73.0312 16.6562C73.3385 16.6562 73.6146 16.5964 73.8594 16.4766C74.1094 16.3516 74.3099 16.1797 74.4609 15.9609C74.6172 15.7422 74.7031 15.4896 74.7188 15.2031H76.4922C76.4818 15.75 76.3203 16.2474 76.0078 16.6953C75.6953 17.1432 75.2812 17.5 74.7656 17.7656C74.25 18.026 73.6797 18.1562 73.0547 18.1562C72.4089 18.1562 71.8464 18.0469 71.3672 17.8281C70.888 17.6042 70.4896 17.2969 70.1719 16.9062C69.8542 16.5156 69.6146 16.0651 69.4531 15.5547C69.2969 15.0443 69.2188 14.4974 69.2188 13.9141V13.6406C69.2188 13.0573 69.2969 12.5104 69.4531 12C69.6146 11.4844 69.8542 11.0312 70.1719 10.6406C70.4896 10.25 70.888 9.94531 71.3672 9.72656C71.8464 9.5026 72.4062 9.39062 73.0469 9.39062C73.724 9.39062 74.3177 9.52604 74.8281 9.79688C75.3385 10.0625 75.7396 10.4349 76.0312 10.9141C76.3281 11.388 76.4818 11.9401 76.4922 12.5703H74.7188C74.7031 12.2578 74.625 11.9766 74.4844 11.7266C74.349 11.4714 74.1562 11.2682 73.9062 11.1172C73.6615 10.9661 73.3672 10.8906 73.0234 10.8906C72.6432 10.8906 72.3281 10.9688 72.0781 11.125C71.8281 11.276 71.6328 11.4844 71.4922 11.75C71.3516 12.0104 71.25 12.3047 71.1875 12.6328C71.1302 12.9557 71.1016 13.2917 71.1016 13.6406V13.9141C71.1016 14.263 71.1302 14.6016 71.1875 14.9297C71.2448 15.2578 71.3438 15.5521 71.4844 15.8125C71.6302 16.0677 71.8281 16.2734 72.0781 16.4297C72.3281 16.5807 72.6458 16.6562 73.0312 16.6562ZM81.8594 9.54688V18H79.9688V9.54688H81.8594ZM84.6328 9.54688V11.0312H77.2422V9.54688H84.6328ZM87.8359 15.25L91.1562 9.54688H93.0391V18H91.1562V12.2891L87.8359 18H85.9531V9.54688H87.8359V15.25Z" fill="#414941"/>
</svg>
