<svg width="26" height="27" viewBox="0 0 26 27" fill="none" xmlns="http://www.w3.org/2000/svg">
<path d="M23 13.3698C23 13.0632 22.9867 12.7698 22.96 12.4632L25.44 10.5832C25.9733 10.1832 26.12 9.4365 25.7867 8.84983L23.2933 4.54317C22.96 3.9565 22.24 3.7165 21.6267 3.98317L18.76 5.1965C18.2667 4.84983 17.7467 4.54317 17.2 4.28983L16.8133 1.20983C16.7333 0.543166 16.16 0.036499 15.4933 0.036499H10.52C9.84 0.036499 9.26666 0.543166 9.18666 1.20983L8.8 4.28983C8.25333 4.54317 7.73333 4.84983 7.24 5.1965L4.37333 3.98317C3.76 3.7165 3.04 3.9565 2.70666 4.54317L0.213329 8.86316C-0.120004 9.44983 0.0266627 10.1832 0.559996 10.5965L3.04 12.4765C3.01333 12.7698 3 13.0632 3 13.3698C3 13.6765 3.01333 13.9698 3.04 14.2765L0.559996 16.1565C0.0266627 16.5565 -0.120004 17.3032 0.213329 17.8898L2.70666 22.1965C3.04 22.7832 3.76 23.0232 4.37333 22.7565L7.24 21.5432C7.73333 21.8898 8.25333 22.1965 8.8 22.4498L9.18666 25.5298C9.26666 26.1965 9.84 26.7032 10.5067 26.7032H15.48C16.1467 26.7032 16.72 26.1965 16.8 25.5298L17.1867 22.4498C17.7333 22.1965 18.2533 21.8898 18.7467 21.5432L21.6133 22.7565C22.2267 23.0232 22.9467 22.7832 23.28 22.1965L25.7733 17.8898C26.1067 17.3032 25.96 16.5698 25.4267 16.1565L22.9467 14.2765C22.9867 13.9698 23 13.6765 23 13.3698ZM13.0533 18.0365C10.48 18.0365 8.38666 15.9432 8.38666 13.3698C8.38666 10.7965 10.48 8.70317 13.0533 8.70317C15.6267 8.70317 17.72 10.7965 17.72 13.3698C17.72 15.9432 15.6267 18.0365 13.0533 18.0365Z" fill="#5F655C"/>
</svg>
